<svg xmlns="http://www.w3.org/2000/svg" xmlns:xlink="http://www.w3.org/1999/xlink" id="Layer_1" width="840" height="226" x="0" y="0" enable-background="new 0 0 840.2 226" version="1.1" viewBox="0 0 840.2 226" xml:space="preserve"><style type="text/css">.st0{fill:#21356a}.st1{fill:#517cd9}.st1,.st2,.st3,.st4{fill-rule:evenodd;clip-rule:evenodd}.st2{fill:url(#SVGID_1_)}.st3{fill:#21356a}.st4{fill:#81a9ff}</style><path d="M687.3,0h-59.2l-59.5,157.2L508.4,0h-60.2v226H499V85.9L549.2,226h38.6l48.6-140.1V226h50.9V0z" class="st0"/><path d="M776.1,180.8V0H724v226h116.2v-45.2H776.1z" class="st0"/><path d="M0,0v226h82.7c18.7,0,35.3-3.2,49.9-9.5c14.6-6.3,26.9-14.8,36.9-25.3c10-10.5,17.5-22.6,22.7-36.2	c5.1-13.6,7.7-27.5,7.7-42c0-14.4-2.6-28.4-7.9-42c-5.3-13.6-12.9-25.6-22.9-36.2c-10-10.5-22.2-19-36.7-25.3	C118,3.2,101.4,0,82.7,0H0z M80.1,45.2c10.5,0,19.9,1.9,28.2,5.6c8.3,3.8,15.2,8.8,20.9,15.2c5.7,6.4,10,13.6,13,21.8	c3,8.2,4.5,16.6,4.5,25.2c0,8.8-1.5,17.3-4.5,25.3c-3,8.1-7.4,15.3-13,21.6c-5.7,6.4-12.7,11.4-20.9,15.2	c-8.3,3.8-17.7,5.6-28.2,5.6h-28V45.2H80.1z" class="st0"/><g><path d="M285.4,2.1h50.3L406.1,226h-50.3L285.4,2.1z" class="st1"/><linearGradient id="SVGID_1_" x1="431.899" x2="259.584" y1="200.201" y2="27.886" gradientUnits="userSpaceOnUse"><stop offset="0" stop-color="#517CD9"/><stop offset="1" stop-color="#2C58B9"/></linearGradient><path d="M285.4,2.1h50.3L406.1,226h-50.3L285.4,2.1z" class="st2"/></g><polygon points="290.4 146 265.3 226 215 226 240.1 146" class="st3"/><polygon points="335.7 2.1 309.9 84.1 259.6 84.1 285.4 2.1" class="st4"/></svg>
