<svg xmlns="http://www.w3.org/2000/svg" xmlns:xlink="http://www.w3.org/1999/xlink" width="20" height="20" version="1.1" viewBox="0 0 20 20"><title>baseline-fullscreen-24px</title><desc>Created with Sketch.</desc><g id="Page-1" fill="none" fill-rule="evenodd" stroke="none" stroke-width="1"><g id="Redlines_NewVisuals" transform="translate(-1835.000000, -1415.000000)"><g id="Group-20" transform="translate(1508.000000, 1385.000000)"><g id="baseline-fullscreen-24px" transform="translate(320.000000, 23.000000)"><polygon id="Path" points="0 0 34 0 34 34 0 34"/><path id="Shape" fill="#5C86DF" fill-rule="nonzero" d="M9.91666667,19.8333333 L7.08333333,19.8333333 L7.08333333,26.9166667 L14.1666667,26.9166667 L14.1666667,24.0833333 L9.91666667,24.0833333 L9.91666667,19.8333333 Z M7.08333333,14.1666667 L9.91666667,14.1666667 L9.91666667,9.91666667 L14.1666667,9.91666667 L14.1666667,7.08333333 L7.08333333,7.08333333 L7.08333333,14.1666667 Z M24.0833333,24.0833333 L19.8333333,24.0833333 L19.8333333,26.9166667 L26.9166667,26.9166667 L26.9166667,19.8333333 L24.0833333,19.8333333 L24.0833333,24.0833333 Z M19.8333333,7.08333333 L19.8333333,9.91666667 L24.0833333,9.91666667 L24.0833333,14.1666667 L26.9166667,14.1666667 L26.9166667,7.08333333 L19.8333333,7.08333333 Z"/></g></g></g></g></svg>