<svg xmlns="http://www.w3.org/2000/svg" xmlns:xlink="http://www.w3.org/1999/xlink" width="20" height="12" version="1.1" viewBox="0 0 20 12"><title>Group 3</title><desc>Created with Sketch.</desc><g id="Page-1" fill="none" fill-rule="evenodd" stroke="none" stroke-width="1"><g id="Redlines_NewVisuals" fill="#5C86DF" fill-rule="nonzero" transform="translate(-1057.000000, -247.000000)"><g id="Group-3" transform="translate(1057.000000, 247.000000)"><rect id="Rectangle-5" width="4" height="4" x="16" y="0" transform="translate(18.000000, 2.000000) rotate(90.000000) translate(-18.000000, -2.000000)"/><polygon id="Rectangle-5" points="12 4 16 4 16 8 12 8" transform="translate(14.000000, 6.000000) rotate(90.000000) translate(-14.000000, -6.000000)"/><polygon id="Rectangle-5" points="8 8 12 8 12 12 8 12" transform="translate(10.000000, 10.000000) rotate(90.000000) translate(-10.000000, -10.000000)"/><rect id="Rectangle-5" width="4" height="4" x="0" y="0" transform="translate(2.000000, 2.000000) scale(1, -1) rotate(-90.000000) translate(-2.000000, -2.000000)"/><polygon id="Rectangle-5" points="4 4 8 4 8 8 4 8" transform="translate(6.000000, 6.000000) scale(1, -1) rotate(-90.000000) translate(-6.000000, -6.000000)"/></g></g></g></svg>